# xmcd CD database file
#
# Track frame offsets:
#	150
#	15124
#	29300
#	44785
#	58630
#	73838
#	88122
#	101033
#	114989
#	128355
#	142668
#	156473
#	170170
#	184718
#	200456
#	214747
#
# Disc length: 3044 seconds
#
# Revision: 0
# Processed by: cddbd v1.4PL0 Copyright (c) Steve Scherf et al.
# Submitted via: Feurio! 1.63 - http://www.feurio.com
#
DISCID=dd0be210
DTITLE=Bessie Smith - BLUES LEGENDS
DYEAR=1900
DGENRE=Blues
TTITLE0=Soft Peadl Blues
TTITLE1=Dixie Flyer Blues
TTITLE2=Careless Love Blues
TTITLE3=J. C. Holmes Blues
TTITLE4=I Ain't Gonna Play Second Fiddle
TTITLE5=He's Gone Blues
TTITLE6=Nobody's Blues But Mine
TTITLE7=Woman's Trouble Blues
TTITLE8=Dying Gambler's Blues
TTITLE9=The St. Louis Blues
TTITLE10=Reckless Blues
TTITLE11=Sabbin' Hearted Blues
TTITLE12=Cold In Hand Blues
TTITLE13=You've Been A Good Old Waggon
TTITLE14=Cake Walkin' Babies
TTITLE15=The Yellow Dog Blues
EXTD=
EXTT0=
EXTT1=
EXTT2=
EXTT3=
EXTT4=
EXTT5=
EXTT6=
EXTT7=
EXTT8=
EXTT9=
EXTT10=
EXTT11=
EXTT12=
EXTT13=
EXTT14=
EXTT15=
PLAYORDER=
